<!DOCTYPE svg PUBLIC "-//W3C//DTD SVG 1.0//EN" "http://www.w3.org/TR/2001/REC-SVG-20010904/DTD/svg10.dtd" []>
<svg xmlns="http://www.w3.org/2000/svg" width="109" height="109" viewBox="0 0 109 109" style="fill:none;stroke:#000000;stroke-width:3;stroke-linecap:round;stroke-linejoin:round;">
<!-- 1--><path d="M52.02,6.08c1.33,1.33,1.51,2.67,1.51,4.77c0,18.15-0.01,78.66-0.01,83.62c0,10.53-7.21,1.5-8.71,0.25"/>
<!-- 2--><path d="M17.25,26.38c5.65,2.58,14.59,10.61,16,14.62"/>
<!-- 3--><path d="M10.5,75.35c1.75,1.15,3.5,0.85,5.41-0.6c1.13-0.85,13.44-11.42,18.21-15.51"/>
<!-- 4--><path d="M87.75,23c-0.37,1.38-0.76,2.34-1.64,3.32c-3.86,4.3-10.44,9.61-20.8,15.9"/>
<!-- 5--><path d="M66.38,56.75C77.5,62,92.12,73.38,95.88,80.38"/>
</svg>