<!DOCTYPE svg PUBLIC "-//W3C//DTD SVG 1.0//EN" "http://www.w3.org/TR/2001/REC-SVG-20010904/DTD/svg10.dtd" []>
<svg xmlns="http://www.w3.org/2000/svg" width="109" height="109" viewBox="0 0 109 109" style="fill:none;stroke:#000000;stroke-width:3;stroke-linecap:round;stroke-linejoin:round;">
<!-- 1--><path d="M27,25c2.93,1.07,6.45,0.65,9.51,0.38c12.46-1.08,27.45-2.96,37.91-3.64c3.32-0.22,4.63,2.42,4.04,5.13C76,38.12,70.75,68.5,67.76,85.62"/>
<!-- 2--><path d="M50,27.75c0.75,1.25,0.67,2.48,0.5,3.5c-1.88,11-9.5,40.88-14,55.5"/>
<!-- 3--><path d="M17,54.45c2.88,1.03,6.17,0.51,9.13,0.28c16.46-1.29,38.81-2.53,55.99-2.89c3.23-0.07,6.44,0.02,9.62,0.71"/>
<!-- 4--><path d="M12.5,88.07c3.88,1.05,7.78,1.05,11.51,0.68c19.06-1.89,41.55-2.61,60.49-2.86c3.62-0.05,6.95,0.27,10.5,1.03"/>
</svg>