<!DOCTYPE svg PUBLIC "-//W3C//DTD SVG 1.0//EN" "http://www.w3.org/TR/2001/REC-SVG-20010904/DTD/svg10.dtd" []>
<svg xmlns="http://www.w3.org/2000/svg" width="109" height="109" viewBox="0 0 109 109" style="fill:none;stroke:#000000;stroke-width:3;stroke-linecap:round;stroke-linejoin:round;">
<!-- 1--><path d="M12.75,51.7c1.52,0.54,4.31,0.68,5.82,0.54c11.18-0.99,53.93-5.49,72.11-5.73c2.53-0.03,4.05,0.26,5.31,0.53"/>
<!-- 2--><path d="M27.75,15.25c1.25,0.5,2,2.25,2.25,3.25c0.16,0.65,0.02,70.25-0.25,77"/>
<!-- 3--><path d="M52.75,15.25c1.25,0.5,2,2.25,2.25,3.25s0,66.75-0.25,73"/>
<!-- 4--><path d="M77.75,12.75C79,13.25,79.75,15,80,16s0,71.25-0.25,77.5"/>
<!-- 5--><path d="M30.5,93.75c7-0.75,43.17-3.8,48.96-3.36"/>
</svg>