<!DOCTYPE svg PUBLIC "-//W3C//DTD SVG 1.0//EN" "http://www.w3.org/TR/2001/REC-SVG-20010904/DTD/svg10.dtd" []>
<svg xmlns="http://www.w3.org/2000/svg" width="109" height="109" viewBox="0 0 109 109" style="fill:none;stroke:#000000;stroke-width:3;stroke-linecap:round;stroke-linejoin:round;">
<!-- 1--><path d="M44.38,17.38c1.32,1.32,1.5,2.86,1.52,4.63c0.4,39.04-9.39,57.25-28.52,68.25"/>
<!-- 2--><path d="M20.5,43.75c2.88,0.12,4.55-0.06,7.04-0.75c7.21-2,31.46-9,36.49-10.75c2.28-0.79,4.84,0.95,4.1,3.75c-1.09,4.12-4.39,24-5.14,35.5c-0.77,11.82,0.75,18.45,15.72,18.45c14.53,0,15.26-1.45,15.26-11.7"/>
<!-- 3--><path d="M30.75,57.5C39.5,60.25,47,68,50.06,72.72"/>
</svg>