<!DOCTYPE svg PUBLIC "-//W3C//DTD SVG 1.0//EN" "http://www.w3.org/TR/2001/REC-SVG-20010904/DTD/svg10.dtd" []>
<svg xmlns="http://www.w3.org/2000/svg" width="109" height="109" viewBox="0 0 109 109" style="fill:none;stroke:#000000;stroke-width:3;stroke-linecap:round;stroke-linejoin:round;">
<!-- 1--><path d="M38,21.5c0.25,1.38-0.17,2.77-0.71,3.88C33.47,33.1,27.75,43,16,51.75"/>
<!-- 2--><path d="M56.25,16c4.5,0.38,22.38,23.62,30.89,30.49c3.19,2.57,4.86,2.89,7.61,4.01"/>
<!-- 3--><path d="M50.8,49.5c0.45,1.5,0.38,3.04-0.77,5.05c-6.41,11.2-10.79,17.7-20.09,29.36c-2.27,2.84-1.45,5.66,2.18,4.58C42.25,85.5,60,81.12,73.25,78.25"/>
<!-- 4--><path d="M65.88,67.5c5.43,4.46,14.02,18.32,15.38,25.25"/>
</svg>