<!DOCTYPE svg PUBLIC "-//W3C//DTD SVG 1.0//EN" "http://www.w3.org/TR/2001/REC-SVG-20010904/DTD/svg10.dtd" []>
<svg xmlns="http://www.w3.org/2000/svg" width="109" height="109" viewBox="0 0 109 109" style="fill:none;stroke:#000000;stroke-width:3;stroke-linecap:round;stroke-linejoin:round;">
<!-- 1--><path d="M11.37,33.25c0.36,0.5,0.72,0.92,0.88,1.55c1.24,4.99,2.72,18.74,3.57,27.7"/>
<!-- 2--><path d="M13.6,35.63c9.15-2.13,16.69-3.48,20.88-4.13c1.53-0.24,2.45,1.42,2.23,2.83c-0.91,5.83-2.46,13.36-3.81,21.42"/>
<!-- 3--><path d="M15.99,59.12c4.91-0.74,11.69-1.52,18.43-2.66"/>
<!-- 4--><path d="M64.42,13c0.06,1.05-0.21,2.79-0.62,4.2C60.92,27,54.62,45.22,42.32,57.43"/>
<!-- 5--><path d="M65.08,16.58c4.04,6.91,23.43,29.48,27.88,34.54c1.51,1.72,3.45,2.45,4.96,2.94"/>
<!-- 6--><path d="M54.05,51.89c0.48,0.24,2.71,0.26,3.19,0.24c4.99-0.27,11.13-2.16,18.26-2.2c0.8-0.01,1.96,0.11,2.36,0.23"/>
<!-- 7--><path d="M49.59,67.33c0.47,0.59,1.53,2.01,1.65,2.79c1.56,10.15,2.74,16.95,3.8,25.41"/>
<!-- 8--><path d="M52.31,68.34c10.94-1.59,24.62-2.52,30.08-3.29c1.99-0.28,3.19,1.67,2.91,3.32c-1.18,6.85-1.89,12.24-4.32,21.83"/>
<!-- 9--><path d="M55.25,93.31c6.41-0.87,18.32-1.61,27.72-2.25"/>
</svg>