<!DOCTYPE svg PUBLIC "-//W3C//DTD SVG 1.0//EN" "http://www.w3.org/TR/2001/REC-SVG-20010904/DTD/svg10.dtd" []>
<svg xmlns="http://www.w3.org/2000/svg" width="109" height="109" viewBox="0 0 109 109" style="fill:none;stroke:#000000;stroke-width:3;stroke-linecap:round;stroke-linejoin:round;">
<!-- 1--><path d="M76.68,14.5c-0.68,1.5-1.45,2.31-2.28,2.83C64.04,23.74,50.48,28.37,23.5,33.54"/>
<!-- 2--><path d="M14.38,57.48c4.99,0.78,9.94,0.32,15.01-0.12C45,56,66.09,54.27,81.5,53.69c4.23-0.38,8.44-0.25,12.62,0.38"/>
<!-- 3--><path d="M53.25,30.25c1.12,1.12,1.25,2.62,1.25,3.75c0,1.03,0,47.38,0,55.75"/>
<!-- 4--><path d="M23.5,92c3.45,0.46,7.9,0.44,11.38,0.16c14-1.16,27-1.78,42.01-2.02c3.77-0.06,7.61-0.01,11.24,0.77"/>
</svg>