<!DOCTYPE svg PUBLIC "-//W3C//DTD SVG 1.0//EN" "http://www.w3.org/TR/2001/REC-SVG-20010904/DTD/svg10.dtd" []>
<svg xmlns="http://www.w3.org/2000/svg" width="109" height="109" viewBox="0 0 109 109" style="fill:none;stroke:#000000;stroke-width:3;stroke-linecap:round;stroke-linejoin:round;">
<!-- 1--><path d="M27.09,33.75c1.25,1.24,1.38,2.73,1.69,4.22c0.31,1.49,1.97,20.03,2.38,23.53"/>
<!-- 2--><path d="M29.63,36.3c12.03-1.15,39.16-3.83,44.42-4.53c6.39-0.85,7.5,1.42,6.94,5.38c-0.29,2.04-2.47,13.74-3.75,20.11"/>
<!-- 3--><path d="M14.38,62.86c4.17,0.77,8.25,0.48,11.79,0.14c17.58-1.7,37.24-4.59,59.1-4.67c3.52-0.01,6.9,0.34,10.35,0.93"/>
<!-- 4--><path d="M53.19,13c1.06,1.75,1.26,2.94,1.31,5.38C55.62,71.25,43.25,81.12,20,95.75"/>
<!-- 5--><path d="M54.5,61.25c7.87,8.53,20.63,20.96,29.68,28.31c2.52,2.05,5.94,4.45,9.57,5.56"/>
</svg>