<!DOCTYPE svg PUBLIC "-//W3C//DTD SVG 1.0//EN" "http://www.w3.org/TR/2001/REC-SVG-20010904/DTD/svg10.dtd" []>
<svg xmlns="http://www.w3.org/2000/svg" width="109" height="109" viewBox="0 0 109 109" style="fill:none;stroke:#000000;stroke-width:3;stroke-linecap:round;stroke-linejoin:round;">
<!-- 1--><path d="M72.18,14.39c0.13,0.4,0.24,1-0.25,1.59C67.75,21,51,28.5,27.31,31.22"/>
<!-- 2--><path d="M16.38,52.11c0.97,0.44,3.45,0.67,4.51,0.61c12.36-0.72,48.36-5.47,63.86-5.64C86.1,47.07,88,47.25,91,48"/>
<!-- 3--><path d="M52.14,28.5c0.57,0.94,0.87,2.02,0.85,4.04c-0.28,35-14.06,53.46-36.74,64.21"/>
<!-- 4--><path d="M54,52c8.74,9.86,27.67,33.11,36.4,39.71c2.97,2.24,4,2.58,5.35,2.79"/>
</svg>