<!DOCTYPE svg PUBLIC "-//W3C//DTD SVG 1.0//EN" "http://www.w3.org/TR/2001/REC-SVG-20010904/DTD/svg10.dtd" []>
<svg xmlns="http://www.w3.org/2000/svg" width="109" height="109" viewBox="0 0 109 109" style="fill:none;stroke:#000000;stroke-width:3;stroke-linecap:round;stroke-linejoin:round;">
<!-- 1--><path d="M28.5,31.25C30,32,32.75,32.75,35,32.5c6.75-0.75,34.02-4.05,37-4.5c5-0.75,6.25,0.75,5.5,4.5s-3,16-3.25,19"/>
<!-- 2--><path d="M17.38,57.11c0.97,0.44,3.46,0.77,4.51,0.61c14.86-2.22,45.86-4.97,63.36-6.14c1.34-0.09,4.5-0.08,6.75,0.42"/>
<!-- 3--><path d="M52.25,11.75c0.5,1,1.24,2.16,1.24,4.32c0,2.43,0.28,11.93,0.28,14.18c0,40-11.53,56.5-35.28,67.5"/>
<!-- 4--><path d="M54,56c8.06,9.05,25.52,30.38,33.56,36.44c2.74,2.06,3.69,2.37,4.94,2.56"/>
</svg>