<!DOCTYPE svg PUBLIC "-//W3C//DTD SVG 1.0//EN" "http://www.w3.org/TR/2001/REC-SVG-20010904/DTD/svg10.dtd" []>
<svg xmlns="http://www.w3.org/2000/svg" width="109" height="109" viewBox="0 0 109 109" style="fill:none;stroke:#000000;stroke-width:3;stroke-linecap:round;stroke-linejoin:round;">
<!-- 1--><path d="M26.38,25.82c2.64,0.78,5.56,0.44,8.24,0.1c10.26-1.3,28.12-3.15,39.64-3.63c2.8-0.12,5.61-0.2,8.38,0.29"/>
<!-- 2--><path d="M52.62,10.88c1.06,1.06,1.44,2.74,1.44,4.65c0,0.89,0.03,21.59,0.03,28.35"/>
<!-- 3--><path d="M18,47.02c3.88,0.73,7.44,0.57,11.01,0.23c13.63-1.28,35.62-3.91,54.24-4.36c3.22-0.08,6.11-0.13,9.25,0.64"/>
<!-- 4--><path d="M34.75,35.25c1.06,1.06,1.5,2.12,1.6,3.53c0.68,9.51,1.4,18.97,1.9,25.72"/>
<!-- 5--><path d="M72.18,32c0.7,1.25,0.61,2.58,0.44,4.4C71.59,47.09,71.12,51.94,70,62"/>
<!-- 6--><path d="M25,65.52c2.38,0.61,5.96,0.48,8.75,0.11C46,64,62.12,62.5,76.38,61.94c2.84-0.11,5.59,0.15,8.38,0.83"/>
<!-- 7--><path d="M43.85,68.77c0.12,1.24-0.24,2.75-0.84,3.83c-3.39,6.15-11.14,17.52-24.1,24.32"/>
<!-- 8--><path d="M60.73,66.62c0.83,0.83,0.93,2.04,0.93,3.48c0,6.52,0.05,12.7,0.05,17.09c0,7.44,1.67,9.07,16.19,9.07c13.23,0,15.49-2.01,15.49-7.68"/>
</svg>