<!DOCTYPE svg PUBLIC "-//W3C//DTD SVG 1.0//EN" "http://www.w3.org/TR/2001/REC-SVG-20010904/DTD/svg10.dtd" []>
<svg xmlns="http://www.w3.org/2000/svg" width="109" height="109" viewBox="0 0 109 109" style="fill:none;stroke:#000000;stroke-width:3;stroke-linecap:round;stroke-linejoin:round;">
<!-- 1--><path d="M17.22,36.25c0,6.61-3.72,16.36-4.69,18.25"/>
<!-- 2--><path d="M29.52,29.83c3.02,2.14,7.79,8.8,8.54,12.13"/>
<!-- 3--><path d="M24.87,11.75c1.09,0.5,1.74,2.25,1.96,3.25c0.22,1,0,76.25-0.22,82.5"/>
<!-- 4--><path d="M55,13.39c0.03,0.7,0.07,1.82-0.06,2.83c-0.78,5.96-5.78,18.3-11.33,27.06"/>
<!-- 5--><path d="M55.29,26.55c0.72,0.17,2.04,0.19,2.76,0.17c4.82-0.12,18.37-2.36,27.29-3.78c1.17-0.19,4.09,0.08,4.69,0.17"/>
<!-- 6--><path d="M39,54.4c1.43,0.36,4.04,0.44,5.47,0.36c14.12-0.72,25.38-3.06,48.28-3.7c2.38-0.07,3.8,0.17,4.99,0.36"/>
<!-- 7--><path d="M67.25,28.52c0.42,0.48,1.33,3.62,1.41,4.59c0.09,0.97-0.05,58.48-0.14,64.53"/>
</svg>