<!DOCTYPE svg PUBLIC "-//W3C//DTD SVG 1.0//EN" "http://www.w3.org/TR/2001/REC-SVG-20010904/DTD/svg10.dtd" []>
<svg xmlns="http://www.w3.org/2000/svg" width="109" height="109" viewBox="0 0 109 109" style="fill:none;stroke:#000000;stroke-width:3;stroke-linecap:round;stroke-linejoin:round;">
<!-- 1--><path d="M16.72,37.5c0.03,4.31-2.47,14.14-4.69,17.5"/>
<!-- 2--><path d="M32.02,31.58c2.31,1.66,5.96,6.81,6.54,9.38"/>
<!-- 3--><path d="M23.87,13.75c1.09,0.5,1.74,2.25,1.96,3.25c0.22,1,0,73.75-0.22,80"/>
<!-- 4--><path d="M46.54,19.1c0.39,0.34,0.79,0.62,0.95,1.04c1.35,3.36,2.96,12.61,3.88,18.64"/>
<!-- 5--><path d="M48.96,20.88c8.85-1.42,25.41-3.21,29.96-3.65c1.66-0.16,2.66,1.46,2.42,2.4c-0.98,3.92-2.13,8.64-3.6,14.06"/>
<!-- 6--><path d="M51.55,37.31c5.34-0.5,20.98-2.36,28.3-3.13"/>
<!-- 7--><path d="M44.24,50.58c13.39-2.09,32.76-3.46,41.02-4.21c3.02-0.27,3.72,2.49,3.54,4.17c-0.68,6.37-1.66,13.75-3.02,18.43"/>
<!-- 8--><path d="M63.51,50.05c0.65,0.42,1.3,3.12,1.3,3.98c0,5.29-0.21,10.3-0.21,13.5"/>
<!-- 9--><path d="M45.34,69.63c4.5-0.47,34.86-2.34,40.01-2.81"/>
<!--10--><path d="M42.88,47.99c0.71,1.26,1.28,2.75,1.32,4.7c0.19,8.7-0.36,16.08-0.36,21.96c0,20.11,2.16,20.85,27,20.85c29.66,0,23.72-8.81,23.96-12.53"/>
</svg>