<!DOCTYPE svg PUBLIC "-//W3C//DTD SVG 1.0//EN" "http://www.w3.org/TR/2001/REC-SVG-20010904/DTD/svg10.dtd" []>
<svg xmlns="http://www.w3.org/2000/svg" width="109" height="109" viewBox="0 0 109 109" style="fill:none;stroke:#000000;stroke-width:3;stroke-linecap:round;stroke-linejoin:round;">
<!-- 1--><path d="M15.47,32.5c0.03,4.19-2.07,13.74-3.94,17"/>
<!-- 2--><path d="M30.52,31.08c2.13,2.45,5.51,10.07,6.04,13.88"/>
<!-- 3--><path d="M21.37,13.75c1.09,0.5,1.74,2.25,1.96,3.25c0.22,1,0,75.25-0.22,81.5"/>
<!-- 4--><path d="M62.39,10c0.78,0.42,2.05,2.04,2.05,2.87c0,3.07-0.25,4.96-0.1,7.56"/>
<!-- 5--><path d="M37.17,22.21c1.67,0.33,3.13,1.1,5.05,0.96c12.53-0.92,32.91-3,46.2-3.67c1.96-0.1,2.96,0.04,4.41,0.58"/>
<!-- 6--><path d="M44.21,30.95c0.59,0.61,0.68,1.75,0.8,2.51c0.82,5.17,1.89,14.16,3.09,24.29"/>
<!-- 7--><path d="M44.95,32.72c10.58-0.67,33.22-3.47,40.31-3.47c1.61,0,2.74,2.01,2.55,3.23c-0.88,5.77-1.81,12.77-2.85,21.94"/>
<!-- 8--><path d="M56.02,37.3c0.18,0.17,0.37,0.81,0.45,1.01c0.63,1.65,1.21,7.28,1.75,10.25"/>
<!-- 9--><path d="M56.65,38.5c3.73-0.86,15.77-1.81,17.91-2.03c0.78-0.08,1.25,0.47,1.14,0.94c-0.46,1.93-1,5.26-1.69,7.93"/>
<!--10--><path d="M57.89,46.9c2.7-0.42,14.46-0.95,17.9-1.33"/>
<!--11--><path d="M48.34,54.98c10.25-0.73,26.23-2.82,37.03-3.41"/>
<!--12--><path d="M77.79,56.5c0.09,0.24,0.2,0.62-0.19,0.96c-2.28,2.04-15.34,6.5-33.22,9.24"/>
<!--13--><path d="M38.07,74.08c0.57,0.22,2.86,0.8,4.37,0.66c6.84-0.66,37.07-3.29,48.66-3.9c1.52-0.08,3.42,0.26,4.37,0.48"/>
<!--14--><path d="M65.15,65.48c0.73,0.41,1.17,1.82,1.31,2.63s0,25.33-0.15,30.39"/>
<!--15--><path d="M64.25,73.01C57.43,82.46,49.4,90.64,36.5,95.56"/>
<!--16--><path d="M66.11,72.86C71.25,77.5,84,88.25,91.49,91.81c1.53,0.73,2.61,1.34,4.01,1.61"/>
</svg>