<!DOCTYPE svg PUBLIC "-//W3C//DTD SVG 1.0//EN" "http://www.w3.org/TR/2001/REC-SVG-20010904/DTD/svg10.dtd" []>
<svg xmlns="http://www.w3.org/2000/svg" width="109" height="109" viewBox="0 0 109 109" style="fill:none;stroke:#000000;stroke-width:3;stroke-linecap:round;stroke-linejoin:round;">
<!-- 1--><path d="M24.99,33.05c0.73,0.73,1.1,1.55,1.44,3.06c1.61,7.14,2.76,13.1,3.86,19.9c0.31,1.9,0.61,3.87,0.92,5.95"/>
<!-- 2--><path d="M26.77,34.21c15.38-2.06,37.98-4.92,47.36-5.56c4-0.28,5.5,1.1,5,4.85c-0.56,4.25-1.33,9.93-2.8,17.15c-0.4,1.96-0.85,4.03-1.37,6.22"/>
<!-- 3--><path d="M29.24,46.79C40,45.5,64.12,42.62,77.11,41.78"/>
<!-- 4--><path d="M31.66,59.61c10.97-1.23,28.97-3.73,42.8-4.38"/>
<!-- 5--><path d="M45.8,12c1.16,1.16,1.57,2.75,1.89,5.97c3.17,32.68,15.08,63.54,38.58,75.72c7.54,3.91,6.47,1.78,5.51-6.26"/>
<!-- 6--><path d="M76.22,64.12c0,1.63-0.76,2.81-1.7,3.88C69.65,74.5,50.41,87,24.56,94.75"/>
</svg>