<!DOCTYPE svg PUBLIC "-//W3C//DTD SVG 1.0//EN" "http://www.w3.org/TR/2001/REC-SVG-20010904/DTD/svg10.dtd" []>
<svg xmlns="http://www.w3.org/2000/svg" width="109" height="109" viewBox="0 0 109 109" style="fill:none;stroke:#000000;stroke-width:3;stroke-linecap:round;stroke-linejoin:round;">
<!-- 1--><path d="M11.28,37.72c0.35,0.24,2.39,0.41,3.31,0.31c3.94-0.41,18.12-1.71,24.45-2.91c0.92-0.17,2.15-0.24,2.73,0"/>
<!-- 2--><path d="M25.86,14c0.91,0.47,2.54,2.5,2.54,4.92c0,0.95-0.12,69.25-0.3,75.08"/>
<!-- 3--><path d="M28.44,39.78c-5.25,14.49-9.2,20.62-17.33,33.31"/>
<!-- 4--><path d="M31.22,47.65c2.59,1.55,6.85,6.59,9.03,9.6"/>
<!-- 5--><path d="M66.01,11c0.31,0.46,0.36,1.04,0.29,1.47c-0.44,2.51-4.22,8.73-7.66,12.34"/>
<!-- 6--><path d="M50.09,25.6c0.55,0.59,1.11,0.86,1.11,1.68c0,0.82,2.95,20.52,3.18,24.55"/>
<!-- 7--><path d="M51.53,27.5c3.13-0.27,28.41-4.17,31.26-4.44c2.38-0.23,3.87,0.89,3.43,3.27c-0.23,1.29-1.98,12.75-4.16,22.18"/>
<!-- 8--><path d="M53.14,38.02c3.6-0.19,25.5-3.05,30.94-3.34"/>
<!-- 9--><path d="M54.44,49.81c9.47-1.05,19.59-2.53,27.7-2.96"/>
<!--10--><path d="M67.72,51.67c0.06,0.44,0.87,2.29,0.93,5.09c0.3,13.41-0.19,32.84-0.19,37.41c0,5.59-3.71,3.59-7.04-0.68"/>
<!--11--><path d="M41.6,66.43c1.38,0.19,2.98,0.74,4.36,0.37c1.38-0.37,8.66-2.36,10.95-3.1c2.29-0.74,3.06,1.02,2.44,2.72C56.5,74.25,48.75,85,37.5,91.5"/>
<!--12--><path d="M88.01,57c0.06,0.32,0.11,0.87-0.12,1.28c-2.11,3.94-6.83,9.16-10.64,11.22"/>
<!--13--><path d="M69,61.25c5.94,9.07,15.9,21.32,22.54,26.55c1.4,1.1,2.73,1.66,4.02,2.03"/>
</svg>