<!DOCTYPE svg PUBLIC "-//W3C//DTD SVG 1.0//EN" "http://www.w3.org/TR/2001/REC-SVG-20010904/DTD/svg10.dtd" []>
<svg xmlns="http://www.w3.org/2000/svg" width="109" height="109" viewBox="0 0 109 109" style="fill:none;stroke:#000000;stroke-width:3;stroke-linecap:round;stroke-linejoin:round;">
<!-- 1--><path d="M20.63,17.25c4.45,1.47,11.5,6.05,12.62,8.34"/>
<!-- 2--><path d="M14,42.5c4.77,1.41,12.31,5.8,13.5,8"/>
<!-- 3--><path d="M16.75,87.21c1.5,1.31,3.31,1.36,4.25-0.25c2.75-4.7,5.5-10.45,8-16.45"/>
<!-- 4--><path d="M54.27,25.93c1.23,1.18,1.33,3.67,1.06,5.7c-1.97,15.03-8.04,39.05-20.95,54.53"/>
<!-- 5--><path d="M44.75,23c2.5,1,3.67,1.14,6.25,0.75c5-0.75,20.75-4.75,24.75-6S81.69,17.72,81,21c-1,4.75-5,15.5-6.75,21.5"/>
<!-- 6--><path d="M56.25,45.25C64.75,44.25,80,42,84,41.5c2.73-0.34,3.67,1.23,3,3.5c-5.75,19.5-23.25,40.5-42.25,47.5"/>
<!-- 7--><path d="M53.75,51.25C61,57.81,83.29,84.32,90.59,89.01c2.34,1.5,3.84,2.7,5.91,3.24"/>
</svg>