<!DOCTYPE svg PUBLIC "-//W3C//DTD SVG 1.0//EN" "http://www.w3.org/TR/2001/REC-SVG-20010904/DTD/svg10.dtd" []>
<svg xmlns="http://www.w3.org/2000/svg" width="109" height="109" viewBox="0 0 109 109" style="fill:none;stroke:#000000;stroke-width:3;stroke-linecap:round;stroke-linejoin:round;">
<!-- 1--><path d="M15.63,17c4.28,1.87,11.05,7.68,12.12,10.59"/>
<!-- 2--><path d="M11.5,44c4.59,1.59,11.85,6.53,13,9"/>
<!-- 3--><path d="M13.25,88.23c1.71,1.27,3.78,1.32,4.86-0.25c3.14-4.57,6.29-10.16,9.14-15.99"/>
<!-- 4--><path d="M57.58,15.25c0.06,0.29,0.13,0.76-0.13,1.18c-1.56,2.49-10.51,7.95-22.75,11.29"/>
<!-- 5--><path d="M32.26,43.65c0.48,0.12,1.76,0.32,3.04,0.36c3.52,0.12,12.78-0.99,21.59-1.59c1.28-0.09,1.6-0.12,2.4,0"/>
<!-- 6--><path d="M46.84,27.6c0.28,0.45,1.2,2.02,1.25,2.91c0.05,0.9,0,61.39-0.06,66.99"/>
<!-- 7--><path d="M47.85,44.8c-3.48,11.45-9.3,25.58-17.19,34.94"/>
<!-- 8--><path d="M50.1,52.36c3.31,2.48,6.11,7.43,7.89,10.61"/>
<!-- 9--><path d="M60.99,35.76c2.21,3.61,5.43,13.85,6.03,17.46"/>
<!--10--><path d="M90.81,31.21c0.59,0.82,0.3,2.44-0.23,3.72c-0.54,1.28-5.48,10.77-8.17,13.76"/>
<!--11--><path d="M74.73,14.3c0.78,0.79,1.16,2.93,1.18,4.25c0.83,44.95-3.36,63.47-19.55,76.74"/>
<!--12--><path d="M75.61,54.87c5.43,16.38,13.02,30.31,17.66,36.68c1.35,1.86,1.57,1.76,2.61,2.26"/>
</svg>