<!DOCTYPE svg PUBLIC "-//W3C//DTD SVG 1.0//EN" "http://www.w3.org/TR/2001/REC-SVG-20010904/DTD/svg10.dtd" []>
<svg xmlns="http://www.w3.org/2000/svg" width="109" height="109" viewBox="0 0 109 109" style="fill:none;stroke:#000000;stroke-width:3;stroke-linecap:round;stroke-linejoin:round;">
<!-- 1--><path d="M42.78,16.75c0.08,0.43-0.6,2.04-1.03,2.5c-3.29,3.5-11.63,9.92-26.19,14.8"/>
<!-- 2--><path d="M10.53,48.71c0.86,0.31,3.01,0.4,3.86,0.31c7.6-0.77,28.85-3.52,34.57-3.93c1.43-0.1,2.29,0.15,3.01,0.31"/>
<!-- 3--><path d="M31.71,30.37c0.43,0.35,1.35,2.63,1.44,3.33c0.16,1.31-0.05,26.17-0.14,30.69"/>
<!-- 4--><path d="M17.68,66.09c0.43,0.45,0.86,0.82,1.05,1.38c1.47,4.44,3.24,17.29,4.25,25.27"/>
<!-- 5--><path d="M19.55,66.62c10.01-1.44,21.31-3.14,26.94-3.74c2.06-0.22,2.65,2.2,2.35,3.48c-1.22,5.29-2.28,13.17-4.1,20.48"/>
<!-- 6--><path d="M22.77,89.78c6.61-0.67,15-1.42,24.07-2.46"/>
<!-- 7--><path d="M51.61,37.2c1.23,0.46,3.49,0.57,4.72,0.46c9.07-0.83,22.88-2.72,37.74-3.82c2.05-0.15,3.28,0.22,4.31,0.45"/>
<!-- 8--><path d="M59.88,17.6c1.02,0.49,1.63,2.19,1.84,3.16c0.2,0.97,0,67.41-0.2,73.49"/>
<!-- 9--><path d="M83.64,13.75c1.02,0.49,1.63,2.19,1.84,3.16c0.2,0.97,0,70.29-0.21,76.37"/>
<!--10--><path d="M62.34,60.94c5.23-0.34,19.31-1.92,22.12-1.92"/>
<!--11--><path d="M62.34,90.67c6.1-0.24,16.26-1.7,21.88-1.95"/>
</svg>