<!DOCTYPE svg PUBLIC "-//W3C//DTD SVG 1.0//EN" "http://www.w3.org/TR/2001/REC-SVG-20010904/DTD/svg10.dtd" []>
<svg xmlns="http://www.w3.org/2000/svg" width="109" height="109" viewBox="0 0 109 109" style="fill:none;stroke:#000000;stroke-width:3;stroke-linecap:round;stroke-linejoin:round;">
<!-- 1--><path d="M48.97,9.14c0.02,0.21,0.04,0.54-0.04,0.83c-0.47,1.76-3.15,5.62-6.82,7.99"/>
<!-- 2--><path d="M22.38,19.43c0.24,0.24,1.49,1.62,1.6,1.92c0.82,2.36,1.81,7.7,2.38,11.95"/>
<!-- 3--><path d="M23.86,21.03c9.17-0.93,56.89-4.53,61.62-4.8c2.03-0.12,3.39,1.8,3.12,3.13c-0.57,2.77-1.96,6.64-3.47,10.6"/>
<!-- 4--><path d="M43.07,20c0.16,1.57,1.28,8.46,1.44,10.24"/>
<!-- 5--><path d="M64.07,19.02c-0.16,2.56-0.96,8.46-1.28,10.04"/>
<!-- 6--><path d="M26.6,32.11c5.67-0.29,48.98-3.56,58.9-3.79"/>
<!-- 7--><path d="M31.03,41.67c1.44,0.35,4.08,0.45,5.51,0.35c11.21-0.78,29.46-2.78,38.78-2.84c2.4-0.02,3.83,0.17,5.03,0.35"/>
<!-- 8--><path d="M53.14,33.1c0.08,0.22,1.21,1.16,1.21,2.59c0,9.26-0.13,11.47-0.13,13.8"/>
<!-- 9--><path d="M19.08,51.8c1.92,0.73,5.44,0.9,7.36,0.73c16.31-1.52,42.81-3.27,60.9-3.41c3.2-0.02,5.12,0.35,6.72,0.71"/>
<!--10--><path d="M39.35,54.57c2.17,1.79,5.6,7.35,6.14,10.13"/>
<!--11--><path d="M69.97,52.9c0.02,0.25,0.04,0.64-0.04,0.99c-0.49,2.08-3.29,6.66-7.13,9.46"/>
<!--12--><path d="M28.66,68.51c1.05,0.46,4.65,0.5,5.7,0.42c7.24-0.55,31.62-2.12,43.97-3.03c1.74-0.13,5.4,0.4,6.27,0.63"/>
<!--13--><path d="M20.24,81.06c1.9,0.46,5.41,0.58,7.31,0.46c13.09-0.86,43.66-2.86,58.72-3.17c3.18-0.06,5.08,0.22,6.67,0.45"/>
<!--14--><path d="M53.4,68.12c0.37,0.39,1.15,2.15,1.23,2.93c0.07,0.78-0.05,25.09-0.12,29.95"/>
</svg>