<!DOCTYPE svg PUBLIC "-//W3C//DTD SVG 1.0//EN" "http://www.w3.org/TR/2001/REC-SVG-20010904/DTD/svg10.dtd" []>
<svg xmlns="http://www.w3.org/2000/svg" width="109" height="109" viewBox="0 0 109 109" style="fill:none;stroke:#000000;stroke-width:3;stroke-linecap:round;stroke-linejoin:round;">
<!-- 1--><path d="M16.25,23.42c1.72,0.7,5.62,1.19,8,1c11.9-0.96,46.61-4.43,60.33-4.5c2.32-0.01,7.14,0.58,8.17,0.83"/>
<!-- 2--><path d="M37.58,12.25c2.17,0.5,3.04,2.64,3.17,3.5c1.14,8.06,1.34,14.74,1.67,17.67"/>
<!-- 3--><path d="M66.92,11.25c1.08,1.25,1.32,2.15,1.17,3.67c-0.5,4.83-1.33,10.08-3,17"/>
<!-- 4--><path d="M23.42,41.42c2,1.17,2.17,2.84,2.33,4.5c1.07,11.26,1.26,28.64,2.83,50.67"/>
<!-- 5--><path d="M26.92,43.25c17.83-1.5,43.83-3.5,55.33-4.17c2.23-0.13,4.11,2.22,3.85,4.88c-1.22,12.64-2.9,33.22-5.34,50.29"/>
<!-- 6--><path d="M39.92,56.92c0.38,0.36,1.5,2.22,1.67,2.67c1.33,3.54,1.86,11.81,3,18.17"/>
<!-- 7--><path d="M41.58,58.08c7.17-0.33,19-1.68,23.17-2.17c1.52-0.18,2.22,0.37,2,1.41c-0.9,4.3-1.96,9.49-3.3,15.44"/>
<!-- 8--><path d="M44.92,75.08c6.08-0.33,12-1.17,19.67-1.5"/>
<!-- 9--><path d="M29.25,92.25c12.95-0.47,35.83-1.33,51.5-2"/>
</svg>