<!DOCTYPE svg PUBLIC "-//W3C//DTD SVG 1.0//EN" "http://www.w3.org/TR/2001/REC-SVG-20010904/DTD/svg10.dtd" []>
<svg xmlns="http://www.w3.org/2000/svg" width="109" height="109" viewBox="0 0 109 109" style="fill:none;stroke:#000000;stroke-width:3;stroke-linecap:round;stroke-linejoin:round;">
<!-- 1--><path d="M10.24,21.64c0.63,0.41,3.81,1.01,4.46,0.95c6.66-0.58,22.3-1.84,27.05-2.07c1.6-0.08,3.38-0.17,4.75,0.35"/>
<!-- 2--><path d="M12.97,38.84c0.28,0.91,1.09,2.66,1.09,5.01c0,0.99-0.14,47.41,0,48.39"/>
<!-- 3--><path d="M13.76,40.88c2.41-0.12,24.79-2.28,26.98-2.59c2.27-0.32,4.15,1.19,4.15,3.98c0,1.56-0.35,47.65-0.35,48.39"/>
<!-- 4--><path d="M23.98,25.72c0.64,1.26,1.04,2.99,0.94,4.73c-0.87,16.04-2.66,25.37-6.5,33.14"/>
<!-- 5--><path d="M32.71,23.54c0.43,1.21,0.77,2.65,0.8,4.52c0.08,5.94-0.19,16-0.23,23.34c-0.03,6.37,1.86,7.69,4.88,7.69c3.06,0,5.17-0.22,5.47-0.93"/>
<!-- 6--><path d="M14.69,74.01c3.27,0,26.2-2.69,29.89-2.69"/>
<!-- 7--><path d="M14.54,88.94c6.65-0.53,21.75-1.45,30.03-1.9"/>
<!-- 8--><path d="M47.86,34.52c1.29,0.46,3.67,0.57,4.96,0.46c9.52-0.84,24.18-1.73,39.79-2.83c2.15-0.15,3.45,0.22,4.53,0.45"/>
<!-- 9--><path d="M57.17,18.87c1.07,0.49,1.71,2.19,1.93,3.17c0.21,0.98,0,65.12-0.21,71.21"/>
<!--10--><path d="M82.62,13.5c1.07,0.49,1.71,2.19,1.93,3.17c0.21,0.98,0,70.01-0.21,76.1"/>
<!--11--><path d="M59.26,58.84c5.49-0.34,22.28-1.93,25.23-1.93"/>
<!--12--><path d="M59.26,89.15c6.4-0.24,19.08-0.71,24.98-0.95"/>
</svg>