<!DOCTYPE svg PUBLIC "-//W3C//DTD SVG 1.0//EN" "http://www.w3.org/TR/2001/REC-SVG-20010904/DTD/svg10.dtd" []>
<svg xmlns="http://www.w3.org/2000/svg" width="109" height="109" viewBox="0 0 109 109" style="fill:none;stroke:#000000;stroke-width:3;stroke-linecap:round;stroke-linejoin:round;">
<!-- 1--><path d="M30.16,14.76c1.57,0.06,4.48,0.33,6.01,0.17c8.18-0.83,29.58-2.43,37.16-3.51c2.13-0.3,2.76-0.16,4.73,0.11"/>
<!-- 2--><path d="M20.68,25.42c-0.26,5.08-2.57,10.71-4.28,15.84"/>
<!-- 3--><path d="M20.85,27.32c7.4-1.02,50.34-5.34,66.05-5.34c9.1,0,1.17,5.33-0.28,6.93"/>
<!-- 4--><path d="M51.42,14.82c0.91,1.36,1.31,2.26,1.33,3.6c0.01,0.48-0.27,23.77-0.27,25.09"/>
<!-- 5--><path d="M32.5,31.19c3.17,0.81,7.48,3.22,9.21,4.55"/>
<!-- 6--><path d="M29.25,40.01c3.32,0.88,8.46,4.11,10.27,5.57"/>
<!-- 7--><path d="M66,28.27c4.06,1.34,8.65,4.02,10.28,5.13"/>
<!-- 8--><path d="M64.54,37.98c4.11,1.1,9.71,4.38,11.95,6.21"/>
<!-- 9--><path d="M15.32,62.07c0.72,0.18,2.89,0.15,4.79,0c6.71-0.54,17.59-2.43,24.78-2.79c1.91-0.1,3.35-0.54,4.55-0.36"/>
<!--10--><path d="M35.05,49.12c1.2,0.36,1.92,1.61,2.16,2.33c0.24,0.72,0,43.14-0.24,47.62"/>
<!--11--><path d="M36.75,61.47c-3.82,9.25-15.21,24.74-23.17,29.97"/>
<!--12--><path d="M39.33,67.95c3.64,1.75,7.54,5.25,9.61,8.31"/>
<!--13--><path d="M55.95,58.57c0.58,0.18,1.85,0.28,3.4,0.18c5.47-0.36,16.63-1.11,27.32-2.01c1.55-0.13,2.9-0.18,3.87,0"/>
<!--14--><path d="M69.79,47.68c1.2,0.36,1.92,1.61,2.16,2.33c0.24,0.72,0,44.22-0.24,48.7"/>
<!--15--><path d="M72.24,59.32C68.66,69.67,57.5,84.08,49.18,89.38"/>
<!--16--><path d="M72.16,59.07c6.3,10.45,16.39,23.85,21.51,27.97c1.46,1.17,2.27,1.98,3.5,2.38"/>
</svg>