<!DOCTYPE svg PUBLIC "-//W3C//DTD SVG 1.0//EN" "http://www.w3.org/TR/2001/REC-SVG-20010904/DTD/svg10.dtd" []>
<svg xmlns="http://www.w3.org/2000/svg" width="109" height="109" viewBox="0 0 109 109" style="fill:none;stroke:#000000;stroke-width:3;stroke-linecap:round;stroke-linejoin:round;">
<!-- 1--><path d="M20,26.77c1.29,0.53,2.8,0.63,4.1,0.53C36,26.33,71,22.83,84.72,22.76c2.16-0.01,3.45,0.25,4.53,0.51"/>
<!-- 2--><path d="M37.75,13.5c1.75,1.43,2.31,1.87,2.5,2.75C42,24.5,42.5,32,43,35"/>
<!-- 3--><path d="M66.25,11.75c1.12,1,1.87,2.52,1.5,4c-1.12,4.5-1.88,12-3.5,17.75"/>
<!-- 4--><path d="M43.46,42.22c1.01,0.37,1.61,1.66,1.81,2.39c0.2,0.74,0,45.38-0.2,49.99"/>
<!-- 5--><path d="M61.9,40.75c1.01,0.37,1.62,1.66,1.82,2.39c0.2,0.74,0,46.12-0.2,50.72"/>
<!-- 6--><path d="M18.95,52.9c0.87,0.28,2.46,0.28,3.34,0.28c7.09-0.02,13.42-1.12,19.87-1.39c1.45-0.06,2.12-0.1,3.04-0.1"/>
<!-- 7--><path d="M18.68,66.9c0.87,0.28,2.46,0.28,3.33,0.28c7.09-0.02,13.46-1.49,19.91-1.76c1.45-0.06,2.12-0.1,3.04-0.1"/>
<!-- 8--><path d="M19.29,80.89c0.87,0.28,2.46,0.28,3.33,0.28c7.08-0.02,12.12-0.68,19.3-1.49c1.43-0.16,2.12-0.1,3.04-0.1"/>
<!-- 9--><path d="M64.11,50.88c1.16,0,1.08-0.01,1.94-0.09c5.54-0.49,14.97-1.81,20.26-2.26c1.44-0.12,2.32,0.13,3.05,0.27"/>
<!--10--><path d="M63.87,64.77c1.16,0,1.08-0.01,1.95-0.09c5.54-0.49,14.43-1.3,19.72-1.76c1.44-0.12,2.32,0.13,3.04,0.27"/>
<!--11--><path d="M64.11,78.76c1.16,0,1.08-0.01,1.94-0.09c5.54-0.49,15.36-1.31,20.65-1.76c1.44-0.12,2.32,0.13,3.05,0.27"/>
<!--12--><path d="M16.86,95.85c1.44,0.4,4.08,0.5,5.51,0.4c18.57-1.28,52.65-3.31,67.73-2.75c2.39,0.09,3.83,0.19,5.03,0.39"/>
</svg>