<!DOCTYPE svg PUBLIC "-//W3C//DTD SVG 1.0//EN" "http://www.w3.org/TR/2001/REC-SVG-20010904/DTD/svg10.dtd" []>
<svg xmlns="http://www.w3.org/2000/svg" width="109" height="109" viewBox="0 0 109 109" style="fill:none;stroke:#000000;stroke-width:3;stroke-linecap:round;stroke-linejoin:round;">
<!-- 1--><path d="M15.13,20.27c0.99,0.99,1.25,2.75,1.25,4.23c0,8.03,0,23.37,0,33.75c0,1.62,0,3.12-0.38,4.88"/>
<!-- 2--><path d="M16.84,21.13c6.15-0.85,14.04-2.5,19.92-3.17c1.48-0.17,3.46-0.4,5.06-0.15"/>
<!-- 3--><path d="M27.08,20.92c0.81,0.81,1.16,1.96,1.16,3.46c0,6.17-0.12,24.36-0.12,34.62"/>
<!-- 4--><path d="M16.82,34.72c4.97-0.62,13.34-1.83,17.45-2.48c1.28-0.2,3.23-0.62,4.73-0.41"/>
<!-- 5--><path d="M16.95,46.74c4.71-0.58,12.17-1.55,16.34-2.15c1.37-0.2,4.22-0.84,5.84-0.48"/>
<!-- 6--><path d="M17,62.51c7.37-1.51,15.92-3.16,21.15-4.12c4.81-0.88,6.1,1.25,5.84,6c-0.49,8.86-2.76,21.24-5.51,28.14c-2.48,6.22-5.05,0.54-5.91-0.71"/>
<!-- 7--><path d="M11.2,77.78c0.29,6.39-1.01,12.04-1.29,13.33"/>
<!-- 8--><path d="M15.9,73.96c1.93,2.34,3.08,5.6,3.54,9.81"/>
<!-- 9--><path d="M23.32,69.75c0.78,1.16,3.58,4.99,3.94,8.83"/>
<!--10--><path d="M30.76,66.98c1.12,1.27,2.87,4.4,3.58,6.65"/>
<!--11--><path d="M48.22,39.54c2.78,0.84,5.62,0.29,8.03,0.03c7.79-0.84,17.8-2.52,30.75-3.55c2.53-0.2,4.64-0.39,7.12,0.22"/>
<!--12--><path d="M67,14.25c0.75,1,1.03,2.32,1.02,4.64c-0.17,40.25-5.77,59.86-22.52,74.36"/>
<!--13--><path d="M67.61,39.75c4.76,12.23,12.25,30.73,20.83,43.17c2.38,3.45,5.1,7.16,8.56,9.58"/>
<!--14--><path d="M64.13,78.12c3.45,2.09,8.92,8.62,9.79,11.88"/>
</svg>